<?xml version="1.0" standalone="no"?>
<!DOCTYPE svg PUBLIC "-//W3C//DTD SVG 20010904//EN"
 "http://www.w3.org/TR/2001/REC-SVG-20010904/DTD/svg10.dtd">
<svg version="1.0" xmlns="http://www.w3.org/2000/svg"
 width="800.000000pt" height="800.000000pt" viewBox="0 0 800.000000 800.000000"
 preserveAspectRatio="xMidYMid meet">

<g transform="translate(0.000000,800.000000) scale(0.100000,-0.100000)"
fill="#000000" stroke="none">
<path d="M5485 6929 c-135 -7 -317 -47 -413 -89 -80 -36 -207 -127 -328 -237
-66 -60 -146 -129 -179 -154 -100 -77 -188 -185 -228 -280 -20 -48 -303 -332
-402 -404 -44 -32 -145 -124 -225 -204 -80 -81 -194 -191 -255 -245 -225 -202
-399 -380 -507 -521 -59 -77 -137 -174 -173 -215 -36 -41 -89 -109 -117 -150
-28 -41 -86 -118 -129 -171 -165 -208 -310 -451 -465 -782 -82 -175 -109 -248
-140 -372 -13 -55 -35 -136 -48 -181 -18 -60 -25 -107 -26 -185 -2 -136 -4
-129 24 -129 22 0 41 11 117 69 31 24 31 24 19 2 -40 -76 -153 -161 -273 -207
-127 -48 -222 -119 -287 -213 -45 -66 -106 -125 -175 -171 -27 -19 -98 -76
-157 -128 -150 -131 -306 -341 -338 -458 -17 -61 -5 -72 49 -44 23 11 47 18
52 14 7 -4 9 -31 4 -79 -5 -60 -4 -75 10 -89 21 -21 20 -21 92 16 80 41 104
33 122 -39 21 -82 51 -97 75 -38 8 19 21 35 29 35 16 0 46 -32 76 -83 43 -72
84 -84 135 -39 20 17 55 33 90 41 51 11 60 11 74 -3 22 -22 18 -71 -12 -155
-31 -85 -32 -112 -8 -134 30 -28 74 -20 187 34 118 57 185 71 213 47 38 -34
60 -39 91 -24 70 37 153 138 270 331 143 234 233 338 372 430 183 120 286 161
423 169 92 5 108 13 103 50 -3 29 40 38 171 38 l112 0 32 39 c41 50 72 52 117
5 60 -62 93 -66 333 -36 102 13 110 12 192 -10 105 -28 186 -24 294 15 l74 27
71 -69 c40 -38 141 -131 225 -208 137 -125 262 -261 262 -286 0 -13 -24 -11
-87 7 -54 16 -56 15 -84 -5 -38 -28 -48 -27 -105 12 -117 80 -144 84 -204 26
-42 -41 -83 -115 -73 -132 11 -18 68 4 99 38 29 32 37 35 87 35 63 0 80 -13
71 -57 -8 -42 15 -58 85 -56 84 3 258 61 304 101 16 14 19 14 28 2 74 -111
108 -275 74 -357 -8 -19 -15 -50 -15 -69 0 -27 7 -37 42 -61 32 -21 45 -38 53
-68 14 -54 22 -65 50 -65 31 0 55 35 55 79 0 36 -36 144 -70 211 -25 48 -25
50 -2 50 28 0 101 -57 113 -88 37 -91 68 -148 97 -173 97 -86 87 28 -20 208
-27 45 -66 97 -88 114 -21 17 -50 48 -63 68 -108 166 -146 217 -195 258 -49
42 -572 561 -572 568 0 3 165 110 261 169 100 60 187 146 228 223 23 43 63 91
131 155 73 70 118 125 182 223 47 72 126 184 176 251 113 153 158 229 231 390
64 142 161 395 192 501 11 37 24 111 29 163 5 52 18 133 29 180 12 47 25 153
31 235 13 184 6 659 -10 734 -7 30 -10 80 -7 111 8 70 78 277 120 350 45 79
174 270 204 302 36 37 108 63 248 89 145 26 266 63 287 86 27 31 57 94 51 109
-14 38 -63 47 -268 54 l-200 6 -100 63 c-113 71 -150 99 -250 189 -77 70 -132
101 -216 125 -30 9 -73 29 -95 43 -55 38 -134 63 -233 74 -47 5 -88 9 -91 8
-3 0 -63 -4 -135 -9z"/>
</g>
</svg>
