<?xml version="1.0" standalone="no"?>
<!DOCTYPE svg PUBLIC "-//W3C//DTD SVG 20010904//EN"
 "http://www.w3.org/TR/2001/REC-SVG-20010904/DTD/svg10.dtd">
<svg version="1.0" xmlns="http://www.w3.org/2000/svg"
 width="271.000000pt" height="186.000000pt" viewBox="0 0 271.000000 186.000000"
 preserveAspectRatio="xMidYMid meet">

<g transform="translate(0.000000,186.000000) scale(0.100000,-0.100000)"
fill="#000000" stroke="none">
<path d="M797 1691 c-127 -69 -125 -66 -97 -143 37 -104 99 -168 134 -139 11
9 15 5 20 -23 4 -19 22 -63 41 -99 22 -42 31 -68 24 -72 -29 -18 -75 -246 -63
-315 7 -43 11 -148 17 -448 l2 -133 -55 -48 c-48 -42 -53 -50 -41 -65 8 -9 28
-16 49 -16 20 0 50 -5 67 -11 77 -28 124 43 124 191 1 108 22 352 31 363 4 4
24 -13 45 -39 36 -44 40 -46 79 -41 23 3 60 3 84 0 55 -7 77 -44 68 -108 -8
-48 -58 -135 -79 -135 -16 0 -57 -41 -57 -57 0 -14 56 -34 74 -27 7 3 24 0 38
-5 l26 -10 -19 -72 c-10 -40 -18 -74 -16 -75 9 -10 139 -20 177 -15 54 7 60
25 35 102 -12 36 -15 65 -11 98 4 25 11 110 15 189 7 129 10 144 31 167 29 31
113 61 119 43 2 -7 29 -38 61 -68 49 -47 59 -62 64 -100 3 -25 10 -70 15 -100
6 -41 4 -69 -7 -110 -8 -30 -16 -68 -16 -85 -1 -28 1 -30 53 -38 69 -11 107 3
96 36 -4 12 -10 94 -14 182 -4 91 -11 169 -18 181 -7 11 -17 52 -24 90 -6 38
-19 89 -29 114 -9 25 -25 77 -34 117 -10 39 -33 102 -52 139 l-34 68 27 29
c71 73 195 131 304 142 80 8 175 34 163 44 -5 4 -38 16 -74 26 -132 36 -294
-7 -495 -130 -56 -34 -64 -36 -120 -31 -216 20 -215 19 -191 93 8 26 18 67 22
90 l7 43 28 -60 c30 -64 42 -72 59 -41 13 26 32 209 24 243 -6 31 -47 68 -74
68 -9 0 -38 11 -64 25 -50 27 -85 32 -103 14 -8 -8 -17 -8 -33 1 -16 9 -52 10
-119 6 -124 -9 -141 -9 -171 -3 -18 4 -50 -8 -113 -42z"/>
</g>
</svg>
