<?xml version="1.0" standalone="no"?>
<!DOCTYPE svg PUBLIC "-//W3C//DTD SVG 20010904//EN"
 "http://www.w3.org/TR/2001/REC-SVG-20010904/DTD/svg10.dtd">
<svg version="1.0" xmlns="http://www.w3.org/2000/svg"
 width="728.000000pt" height="508.000000pt" viewBox="0 0 728.000000 508.000000"
 preserveAspectRatio="xMidYMid meet">

<g transform="translate(0.000000,508.000000) scale(0.100000,-0.100000)"
fill="#000000" stroke="none">
<path d="M4383 4019 c-24 -12 -55 -35 -70 -53 -39 -46 -89 -160 -124 -284
l-32 -110 -71 -24 c-110 -36 -268 -30 -631 22 -340 48 -541 59 -805 41 -419
-28 -653 -81 -914 -206 -474 -227 -697 -652 -647 -1235 18 -206 60 -359 146
-535 134 -274 356 -478 615 -566 59 -20 91 -23 322 -27 359 -6 478 12 478 71
0 54 -96 101 -303 147 -188 43 -190 44 -207 73 -13 23 -13 30 2 61 13 27 27
38 58 47 35 11 58 9 176 -15 303 -60 752 -56 1072 9 130 27 168 1 315 -210 75
-108 90 -123 142 -150 l59 -30 310 -3 c328 -3 366 1 366 38 0 45 -82 98 -203
131 -216 60 -210 108 38 345 261 249 352 306 565 349 544 112 905 353 1046
700 41 99 64 210 64 305 0 48 4 71 15 80 26 22 39 83 25 124 -40 123 -358 281
-815 405 -108 29 -365 83 -455 96 -43 5 -47 9 -84 73 -96 163 -206 284 -299
327 -64 30 -99 31 -154 4z"/>
</g>
</svg>
