<?xml version="1.0" standalone="no"?>
<!DOCTYPE svg PUBLIC "-//W3C//DTD SVG 20010904//EN"
 "http://www.w3.org/TR/2001/REC-SVG-20010904/DTD/svg10.dtd">
<svg version="1.0" xmlns="http://www.w3.org/2000/svg"
 width="880.000000pt" height="450.000000pt" viewBox="0 0 880.000000 450.000000"
 preserveAspectRatio="xMidYMid meet">

<g transform="translate(0.000000,450.000000) scale(0.100000,-0.100000)"
fill="#000000" stroke="none">
<path d="M4174 4085 c-399 -51 -797 -204 -1230 -473 -131 -82 -542 -367 -714
-496 -283 -212 -497 -433 -610 -631 -34 -60 -72 -86 -114 -78 -27 5 -80 47
-201 155 -121 108 -170 130 -283 129 -270 -3 -490 -111 -576 -281 -57 -115
-60 -212 -8 -289 59 -87 135 -124 358 -171 175 -37 222 -56 312 -123 126 -92
229 -137 476 -203 212 -57 210 -55 201 -102 -18 -102 -78 -175 -260 -322 -66
-53 -154 -130 -195 -172 -41 -41 -84 -81 -95 -89 -66 -46 -85 -132 -46 -207
29 -57 113 -129 196 -169 141 -66 287 -55 425 34 30 19 143 124 250 232 155
156 208 204 258 230 l63 33 92 -40 c422 -185 957 -347 1407 -426 266 -47 378
-56 825 -66 237 -5 486 -11 555 -14 257 -11 609 21 825 75 191 48 408 124 614
215 147 64 216 50 301 -61 129 -170 347 -338 502 -386 112 -35 238 -19 310 41
103 85 63 206 -178 535 -80 110 -153 216 -161 235 -14 33 -14 35 8 53 18 14
32 17 59 12 19 -3 96 -10 170 -15 124 -8 249 -27 427 -64 106 -23 228 -37 247
-30 14 5 8 13 -31 41 -58 42 -196 112 -278 141 -130 46 -388 109 -546 133
-189 28 -240 91 -323 400 -55 203 -76 251 -156 359 -35 47 -151 213 -258 370
-217 317 -253 366 -395 527 -249 283 -453 439 -882 671 -303 164 -519 248
-710 277 -152 23 -487 28 -631 10z"/>
</g>
</svg>
